<svg xmlns="http://www.w3.org/2000/svg" width="22" height="19" viewBox="0 0 22 19">
    <g fill="#636363" fill-rule="evenodd">
        <path d="M15.097 16.66a.359.359 0 0 1-.358.358H2.076a.36.36 0 0 1-.36-.358V8.572h13.023a.36.36 0 0 1 .358.36v7.728zM2.076 5.604h4.507a.36.36 0 0 1 .359.36v.848c0 .123.012.244.037.36H1.716V5.963a.36.36 0 0 1 .36-.36zm12.663 1.567H8.7a.36.36 0 0 1-.36-.359v-.849a1.76 1.76 0 0 0-1.758-1.758H2.076c-.971 0-1.76.788-1.76 1.758V16.66c0 .97.789 1.76 1.76 1.76h12.663a1.76 1.76 0 0 0 1.758-1.76V8.931a1.76 1.76 0 0 0-1.758-1.76z"/>
        <path d="M20.29.33h-9.067a1.19 1.19 0 0 0-1.189 1.188v4.498a.701.701 0 1 0 1.401 0V1.73h8.642v11.54H17.67a.7.7 0 0 0 0 1.401h2.62a1.19 1.19 0 0 0 1.187-1.189V1.518A1.19 1.19 0 0 0 20.29.33"/>
    </g>
</svg>
