<svg xmlns="http://www.w3.org/2000/svg" width="22" height="19" viewBox="0 0 22 19">
    <g fill="#636363" fill-rule="evenodd">
        <path d="M8.755 2.364a3.576 3.576 0 0 0-.908 2.369c0 1.079.486 2.037 1.239 2.699a5.675 5.675 0 0 1-2.75-2.62 5.688 5.688 0 0 1 2.419-2.448m7.818 2.448a5.68 5.68 0 0 1-2.746 2.619 3.587 3.587 0 0 0 1.238-2.698c0-.91-.35-1.732-.908-2.368a5.687 5.687 0 0 1 2.416 2.447m-5.118-2.288c1.218 0 2.209.99 2.209 2.209a2.21 2.21 0 0 1-2.21 2.208 2.21 2.21 0 0 1-2.207-2.208 2.21 2.21 0 0 1 2.208-2.21m0 6.81c2.862 0 5.365-1.622 6.532-4.236a.691.691 0 0 0 0-.57C16.82 1.914 14.317.29 11.455.29S6.09 1.914 4.923 4.527a.691.691 0 0 0 0 .57c1.167 2.614 3.67 4.237 6.532 4.237M1.495 15.367a.704.704 0 0 0 1.045.036l2.371-2.483a.7.7 0 1 0-1.012-.967l-1.828 1.915-.458-.553a.7.7 0 0 0-1.078.895l.96 1.157zM20.487 13.428H6.777a.7.7 0 1 0 0 1.4h13.71a.7.7 0 1 0 0-1.4M14.39 16.967H6.779a.7.7 0 1 0 0 1.4h7.613a.7.7 0 1 0 0-1.4"/>
    </g>
</svg>
