<svg xmlns="http://www.w3.org/2000/svg" width="21" height="5" viewBox="0 0 21 5">
    <g fill="none" fill-rule="evenodd">
        <path fill="#636363" d="M4.175 2.437a1.737 1.737 0 1 1-3.474 0 1.737 1.737 0 0 1 3.474 0"/>
        <path stroke="#636363" stroke-linecap="round" stroke-linejoin="round" stroke-width="1.4" d="M4.175 2.437a1.737 1.737 0 1 1-3.474 0 1.737 1.737 0 0 1 3.474 0z"/>
        <path fill="#636363" d="M11.925 2.437a1.737 1.737 0 1 1-3.474 0 1.737 1.737 0 0 1 3.474 0"/>
        <path stroke="#636363" stroke-linecap="round" stroke-linejoin="round" stroke-width="1.4" d="M11.925 2.437a1.737 1.737 0 1 1-3.474 0 1.737 1.737 0 0 1 3.474 0zM19.675 2.437a1.737 1.737 0 1 1-3.474 0 1.737 1.737 0 0 1 3.474 0z"/>
    </g>
</svg>
