<svg xmlns="http://www.w3.org/2000/svg" width="19" height="21" viewBox="0 0 19 21">
    <g fill="none" fill-rule="evenodd" stroke="#636363" stroke-linecap="round" stroke-linejoin="round" stroke-width="1.4">
        <path d="M8.454 11.684a3.1 3.1 0 0 0 .778-2.648c-.214-1.273-1.25-2.322-2.518-2.546a3.142 3.142 0 0 0-3.715 3.088c0 .812.313 1.546.821 2.1a.686.686 0 0 1-.188 1.09A5.43 5.43 0 0 0 .699 17.59v1.122c0 .675.549 1.221 1.224 1.221h8.434c.675 0 1.222-.546 1.222-1.221V17.59a5.428 5.428 0 0 0-2.934-4.822.682.682 0 0 1-.191-1.085zM14.222 19.417h2.435c.674 0 1.222-.547 1.222-1.222v-.605a5.431 5.431 0 0 0-3.213-4.958c-.29-.13-.371-.52-.133-.731a3.109 3.109 0 0 0 1-2.87c-.215-1.265-1.245-2.312-2.509-2.54a3.175 3.175 0 0 0-1.598.114M9.292.7L6.14 3.852l-1.21-1.21M15.292.7L12.14 3.852l-1.21-1.21"/>
    </g>
</svg>
