<svg xmlns="http://www.w3.org/2000/svg" width="19" height="22" viewBox="0 0 19 22">
    <g fill="#636363" fill-rule="evenodd">
        <path d="M12.325 13.573a.177.177 0 0 1-.177.177H6.094a.177.177 0 0 1-.177-.177v-.805c0-1.197.662-2.285 1.727-2.84a1.188 1.188 0 0 0 .328-1.876 1.53 1.53 0 0 1-.405-1.035c0-.46.202-.894.556-1.19.284-.238.63-.363.997-.363.096 0 .193.008.291.026a1.573 1.573 0 0 1 1.24 1.254c.082.488-.054.953-.384 1.31a1.191 1.191 0 0 0 .33 1.874 3.191 3.191 0 0 1 1.728 2.84v.805zm-.862-4.765c.501-.647.708-1.47.57-2.297a2.975 2.975 0 0 0-2.378-2.4 2.958 2.958 0 0 0-3.488 2.906c0 .652.217 1.279.613 1.79a4.59 4.59 0 0 0-2.264 3.96v.806a1.58 1.58 0 0 0 1.578 1.577h6.054a1.58 1.58 0 0 0 1.577-1.577v-.805a4.586 4.586 0 0 0-2.262-3.96z"/>
        <path d="M16.78 10.159c0 3.517-2.17 7.924-5.8 9.21l-1.859.66-1.859-.66h.001c-3.63-1.286-5.8-5.693-5.8-9.21V4.573c0-.301.19-.57.471-.67l6.95-2.462a.717.717 0 0 1 .475 0l6.947 2.46c.284.103.474.37.474.672v5.586zm-.006-7.576L9.827.12a2.134 2.134 0 0 0-1.41 0l-6.95 2.463A2.114 2.114 0 0 0 .061 4.573v5.586c0 4.003 2.52 9.036 6.734 10.53h.001l2.091.742a.699.699 0 0 0 .467 0l2.093-.741c4.215-1.495 6.733-6.528 6.733-10.531V4.573c0-.892-.564-1.691-1.406-1.99z"/>
    </g>
</svg>
