<svg xmlns="http://www.w3.org/2000/svg" width="20" height="25" viewBox="0 0 20 25">
    <g fill="none" fill-rule="evenodd" stroke="#636363" stroke-linecap="round" stroke-linejoin="round" stroke-width="1.485">
        <path d="M13.744 4.472c0-2.048-1.692-3.708-3.777-3.708-2.087 0-3.778 1.66-3.778 3.708H5.145a1.16 1.16 0 0 0-1.17 1.149v.577c0 1.095.903 1.983 2.02 1.983h7.943c1.116 0 2.02-.888 2.02-1.983V5.62a1.16 1.16 0 0 0-1.17-1.149h-1.044z"/>
        <path d="M16.24 5.558h2.915v18.17H.778V5.559h3.197"/>
        <path d="M12.553 10.878L6.45 17.645l-.251 2.087 2.08-.497 6.103-6.766zM12.821 14.2l-1.829-1.59"/>
    </g>
</svg>
