<svg xmlns="http://www.w3.org/2000/svg" width="35" height="15" viewBox="0 0 35 15">
    <g fill="#636363" fill-rule="evenodd">
        <path d="M33.453 11.805a.646.646 0 0 1-.644.644H22.376a.645.645 0 0 1-.644-.643V9.621a.703.703 0 0 0-.315-.585l-1.815-1.193 1.815-1.194a.703.703 0 0 0 .315-.585V3.05c0-.354.29-.643.644-.643H32.81c.355 0 .644.29.644.643v8.755zM32.81 1.006H22.376a2.046 2.046 0 0 0-2.044 2.044v2.637l-1.635 1.075a1.292 1.292 0 0 0 0 2.161l1.635 1.075v1.808c0 1.126.917 2.043 2.044 2.043H32.81a2.046 2.046 0 0 0 2.044-2.044V3.05a2.046 2.046 0 0 0-2.044-2.044z"/>
        <path d="M31.285 5.214h-6.86a.7.7 0 1 0 0 1.4h6.86a.7.7 0 1 0 0-1.4M28.347 8.24h-3.923a.7.7 0 1 0 0 1.4h3.923a.7.7 0 1 0 0-1.4M2.144 12.53V1.788c0-.2.163-.363.363-.363h4.529c.2 0 .363.163.363.363v.853c0 .973.79 1.764 1.764 1.764h6.064c.2 0 .363.163.363.363v7.764a.364.364 0 0 1-.363.364H2.507a.364.364 0 0 1-.363-.364zm13.083 1.766c.973 0 1.764-.792 1.764-1.765V4.767c0-.972-.791-1.763-1.764-1.763H9.163a.364.364 0 0 1-.364-.364v-.853c0-.973-.791-1.764-1.763-1.764h-4.53C1.536.023.745.813.745 1.787V12.53c0 .973.79 1.765 1.763 1.765h12.72z"/>
    </g>
</svg>
