<svg xmlns="http://www.w3.org/2000/svg" width="20" height="22" viewBox="0 0 20 22">
    <g fill="none" fill-rule="evenodd" stroke="#636363" stroke-linecap="round" stroke-linejoin="round">
        <path stroke-width="1.4" d="M14.657 17.092l-5.456 3.752A1.23 1.23 0 0 1 7.5 20.54l-6.383-9.143a2.032 2.032 0 0 1-.367-1.154L.74 6.7a2.618 2.618 0 0 1 1.138-2.164 2.59 2.59 0 0 1 2.375-.289l3.371 1.267c.389.146.723.405.96.745l6.384 9.142a1.21 1.21 0 0 1-.31 1.69z"/>
        <path stroke-width="1.47" d="M5.293 7.557a1.08 1.08 0 0 1-.276 1.51 1.098 1.098 0 0 1-1.522-.273 1.081 1.081 0 0 1 .276-1.511 1.099 1.099 0 0 1 1.522.274zM5.293 7.557S5.745.734 9.145.733c2.178 0 2.728 4.229-.562 5.527"/>
        <path stroke-width="1.4" d="M16.335 15.072l1.949-2.983c.444-.68.25-1.59-.436-2.03L11.46 5.94"/>
    </g>
</svg>
