<?xml version="1.0" encoding="UTF-8"?>
<svg width="18px" height="17px" viewBox="0 0 18 17" version="1.1" xmlns="http://www.w3.org/2000/svg" xmlns:xlink="http://www.w3.org/1999/xlink">
    <!-- Generator: Sketch 51.2 (57519) - http://www.bohemiancoding.com/sketch -->
    <title>Advanced privacy settings</title>
    <desc>Created with Sketch.</desc>
    <defs></defs>
    <g id="Page-1" stroke="none" stroke-width="1" fill="none" fill-rule="evenodd">
        <g id="Advanced-privacy-settings" transform="translate(1.000000, -0.026900)">
            <path d="M15.2287,9.4537 C15.2287,9.4967 15.1997,9.5337 15.1557,9.5407 L13.7517,9.7737 C13.5747,9.8047 13.4337,9.9347 13.3907,10.1047 C13.2637,10.5967 13.0697,11.0677 12.8097,11.5057 C12.7187,11.6597 12.7257,11.8497 12.8297,11.9967 L13.6547,13.1597 C13.6777,13.1937 13.6747,13.2437 13.6447,13.2737 L12.6487,14.2697 C12.6247,14.2937 12.6017,14.2967 12.5847,14.2967 C12.5657,14.2967 12.5487,14.2897 12.5357,14.2797 L11.3747,13.4547 C11.2317,13.3507 11.0387,13.3447 10.8837,13.4337 C10.4467,13.6947 9.9747,13.8897 9.4837,14.0157 C9.3097,14.0587 9.1797,14.2027 9.1527,14.3767 L8.9157,15.7807 C8.9087,15.8237 8.8727,15.8537 8.8287,15.8537 L7.4207,15.8537 C7.3777,15.8537 7.3407,15.8237 7.3337,15.7807 L7.1007,14.3767 C7.0707,14.1997 6.9407,14.0587 6.7697,14.0157 C6.2917,13.8917 5.8307,13.7017 5.3997,13.4547 C5.3297,13.4147 5.2497,13.3937 5.1717,13.3937 C5.0827,13.3937 4.9887,13.4207 4.9117,13.4777 L3.7417,14.3097 C3.7247,14.3197 3.7077,14.3267 3.6917,14.3267 C3.6777,14.3267 3.6517,14.3227 3.6277,14.3007 L2.6317,13.3047 C2.6017,13.2737 2.5987,13.2267 2.6227,13.1897 L3.4447,12.0367 C3.5477,11.8907 3.5537,11.6957 3.4637,11.5427 C3.2037,11.1077 3.0027,10.6367 2.8757,10.1447 C2.8297,9.9747 2.6887,9.8447 2.5147,9.8137 L1.1007,9.5737 C1.0577,9.5667 1.0277,9.5297 1.0277,9.4867 L1.0277,8.0797 C1.0277,8.0367 1.0577,7.9997 1.1007,7.9927 L2.4947,7.7597 C2.6717,7.7287 2.8157,7.5987 2.8597,7.4247 C2.9827,6.9327 3.1727,6.4587 3.4307,6.0207 C3.5207,5.8667 3.5107,5.6767 3.4077,5.5327 L2.5757,4.3627 C2.5517,4.3297 2.5547,4.2797 2.5847,4.2497 L3.5817,3.2537 C3.6047,3.2297 3.6277,3.2267 3.6447,3.2267 C3.6647,3.2267 3.6817,3.2327 3.6947,3.2437 L4.8477,4.0657 C4.9947,4.1697 5.1887,4.1767 5.3417,4.0857 C5.7767,3.8247 6.2487,3.6247 6.7397,3.4977 C6.9107,3.4507 7.0407,3.3097 7.0707,3.1367 L7.3107,1.7227 C7.3177,1.6797 7.3547,1.6487 7.3977,1.6487 L8.8047,1.6487 C8.8487,1.6487 8.8847,1.6797 8.8917,1.7227 L9.1257,3.1167 C9.1567,3.2937 9.2867,3.4367 9.4597,3.4807 C9.9647,3.6077 10.4467,3.8057 10.8937,4.0687 C11.0477,4.1597 11.2387,4.1527 11.3847,4.0497 L12.5387,3.2207 C12.5547,3.2097 12.5727,3.2037 12.5887,3.2037 C12.6017,3.2037 12.6287,3.2067 12.6527,3.2297 L13.6487,4.2257 C13.6777,4.2567 13.6817,4.3037 13.6587,4.3397 L12.8327,5.4997 C12.7287,5.6427 12.7227,5.8377 12.8127,5.9907 C13.0737,6.4287 13.2667,6.8997 13.3947,7.3907 C13.4377,7.5647 13.5817,7.6947 13.7547,7.7227 L15.1597,7.9597 C15.2027,7.9667 15.2327,8.0027 15.2327,8.0467 L15.2327,9.4537 L15.2287,9.4537 Z M15.3057,7.0707 L14.1827,6.8797 C14.0657,6.5027 13.9157,6.1387 13.7317,5.7907 L14.3937,4.8647 C14.6737,4.4707 14.6307,3.9327 14.2867,3.5917 L13.2907,2.5957 C13.1037,2.4077 12.8557,2.3047 12.5917,2.3047 C12.3847,2.3047 12.1877,2.3677 12.0207,2.4877 L11.0907,3.1497 C10.7307,2.9597 10.3527,2.8027 9.9617,2.6847 L9.7747,1.5757 C9.6947,1.0977 9.2837,0.7497 8.7987,0.7497 L7.3917,0.7497 C6.9067,0.7497 6.4957,1.0977 6.4157,1.5757 L6.2217,2.7117 C5.8467,2.8287 5.4827,2.9827 5.1347,3.1697 L4.2157,2.5087 C4.0487,2.3877 3.8487,2.3237 3.6407,2.3237 C3.3767,2.3237 3.1257,2.4287 2.9427,2.6147 L1.9437,3.6107 C1.6027,3.9517 1.5557,4.4897 1.8357,4.8847 L2.5047,5.8237 C2.3207,6.1747 2.1737,6.5387 2.0607,6.9167 L0.9507,7.1037 C0.4727,7.1837 0.1247,7.5957 0.1247,8.0797 L0.1247,9.4867 C0.1247,9.9717 0.4727,10.3827 0.9507,10.4627 L2.0867,10.6567 C2.2047,11.0307 2.3577,11.3947 2.5447,11.7427 L1.8867,12.6587 C1.6057,13.0537 1.6497,13.5917 1.9937,13.9327 L2.9897,14.9287 C3.1767,15.1157 3.4237,15.2197 3.6877,15.2197 C3.8947,15.2197 4.0917,15.1557 4.2597,15.0357 L5.1987,14.3667 C5.5367,14.5437 5.8907,14.6877 6.2547,14.8017 L6.4417,15.9247 C6.5227,16.4017 6.9337,16.7497 7.4177,16.7497 L8.8287,16.7497 C9.3137,16.7497 9.7247,16.4017 9.8047,15.9247 L9.9957,14.8017 C10.3727,14.6837 10.7377,14.5337 11.0837,14.3497 L12.0107,15.0117 C12.1777,15.1327 12.3777,15.1957 12.5847,15.1957 C12.8497,15.1957 13.0967,15.0927 13.2847,14.9047 L14.2797,13.9087 C14.6217,13.5677 14.6667,13.0297 14.3867,12.6357 L13.7247,11.7067 C13.9097,11.3547 14.0627,10.9907 14.1757,10.6167 L15.2987,10.4297 C15.7777,10.3497 16.1247,9.9377 16.1247,9.4537 L16.1247,8.0467 C16.1317,7.5617 15.7847,7.1507 15.3057,7.0707 Z" id="Fill-51" fill="#636363"></path>
            <path d="M15.2287,9.4537 C15.2287,9.4967 15.1997,9.5337 15.1557,9.5407 L13.7517,9.7737 C13.5747,9.8047 13.4337,9.9347 13.3907,10.1047 C13.2637,10.5967 13.0697,11.0677 12.8097,11.5057 C12.7187,11.6597 12.7257,11.8497 12.8297,11.9967 L13.6547,13.1597 C13.6777,13.1937 13.6747,13.2437 13.6447,13.2737 L12.6487,14.2697 C12.6247,14.2937 12.6017,14.2967 12.5847,14.2967 C12.5657,14.2967 12.5487,14.2897 12.5357,14.2797 L11.3747,13.4547 C11.2317,13.3507 11.0387,13.3447 10.8837,13.4337 C10.4467,13.6947 9.9747,13.8897 9.4837,14.0157 C9.3097,14.0587 9.1797,14.2027 9.1527,14.3767 L8.9157,15.7807 C8.9087,15.8237 8.8727,15.8537 8.8287,15.8537 L7.4207,15.8537 C7.3777,15.8537 7.3407,15.8237 7.3337,15.7807 L7.1007,14.3767 C7.0707,14.1997 6.9407,14.0587 6.7697,14.0157 C6.2917,13.8917 5.8307,13.7017 5.3997,13.4547 C5.3297,13.4147 5.2497,13.3937 5.1717,13.3937 C5.0827,13.3937 4.9887,13.4207 4.9117,13.4777 L3.7417,14.3097 C3.7247,14.3197 3.7077,14.3267 3.6917,14.3267 C3.6777,14.3267 3.6517,14.3227 3.6277,14.3007 L2.6317,13.3047 C2.6017,13.2737 2.5987,13.2267 2.6227,13.1897 L3.4447,12.0367 C3.5477,11.8907 3.5537,11.6957 3.4637,11.5427 C3.2037,11.1077 3.0027,10.6367 2.8757,10.1447 C2.8297,9.9747 2.6887,9.8447 2.5147,9.8137 L1.1007,9.5737 C1.0577,9.5667 1.0277,9.5297 1.0277,9.4867 L1.0277,8.0797 C1.0277,8.0367 1.0577,7.9997 1.1007,7.9927 L2.4947,7.7597 C2.6717,7.7287 2.8157,7.5987 2.8597,7.4247 C2.9827,6.9327 3.1727,6.4587 3.4307,6.0207 C3.5207,5.8667 3.5107,5.6767 3.4077,5.5327 L2.5757,4.3627 C2.5517,4.3297 2.5547,4.2797 2.5847,4.2497 L3.5817,3.2537 C3.6047,3.2297 3.6277,3.2267 3.6447,3.2267 C3.6647,3.2267 3.6817,3.2327 3.6947,3.2437 L4.8477,4.0657 C4.9947,4.1697 5.1887,4.1767 5.3417,4.0857 C5.7767,3.8247 6.2487,3.6247 6.7397,3.4977 C6.9107,3.4507 7.0407,3.3097 7.0707,3.1367 L7.3107,1.7227 C7.3177,1.6797 7.3547,1.6487 7.3977,1.6487 L8.8047,1.6487 C8.8487,1.6487 8.8847,1.6797 8.8917,1.7227 L9.1257,3.1167 C9.1567,3.2937 9.2867,3.4367 9.4597,3.4807 C9.9647,3.6077 10.4467,3.8057 10.8937,4.0687 C11.0477,4.1597 11.2387,4.1527 11.3847,4.0497 L12.5387,3.2207 C12.5547,3.2097 12.5727,3.2037 12.5887,3.2037 C12.6017,3.2037 12.6287,3.2067 12.6527,3.2297 L13.6487,4.2257 C13.6777,4.2567 13.6817,4.3037 13.6587,4.3397 L12.8327,5.4997 C12.7287,5.6427 12.7227,5.8377 12.8127,5.9907 C13.0737,6.4287 13.2667,6.8997 13.3947,7.3907 C13.4377,7.5647 13.5817,7.6947 13.7547,7.7227 L15.1597,7.9597 C15.2027,7.9667 15.2327,8.0027 15.2327,8.0467 L15.2327,9.4537 L15.2287,9.4537 Z M15.3057,7.0707 L14.1827,6.8797 C14.0657,6.5027 13.9157,6.1387 13.7317,5.7907 L14.3937,4.8647 C14.6737,4.4707 14.6307,3.9327 14.2867,3.5917 L13.2907,2.5957 C13.1037,2.4077 12.8557,2.3047 12.5917,2.3047 C12.3847,2.3047 12.1877,2.3677 12.0207,2.4877 L11.0907,3.1497 C10.7307,2.9597 10.3527,2.8027 9.9617,2.6847 L9.7747,1.5757 C9.6947,1.0977 9.2837,0.7497 8.7987,0.7497 L7.3917,0.7497 C6.9067,0.7497 6.4957,1.0977 6.4157,1.5757 L6.2217,2.7117 C5.8467,2.8287 5.4827,2.9827 5.1347,3.1697 L4.2157,2.5087 C4.0487,2.3877 3.8487,2.3237 3.6407,2.3237 C3.3767,2.3237 3.1257,2.4287 2.9427,2.6147 L1.9437,3.6107 C1.6027,3.9517 1.5557,4.4897 1.8357,4.8847 L2.5047,5.8237 C2.3207,6.1747 2.1737,6.5387 2.0607,6.9167 L0.9507,7.1037 C0.4727,7.1837 0.1247,7.5957 0.1247,8.0797 L0.1247,9.4867 C0.1247,9.9717 0.4727,10.3827 0.9507,10.4627 L2.0867,10.6567 C2.2047,11.0307 2.3577,11.3947 2.5447,11.7427 L1.8867,12.6587 C1.6057,13.0537 1.6497,13.5917 1.9937,13.9327 L2.9897,14.9287 C3.1767,15.1157 3.4237,15.2197 3.6877,15.2197 C3.8947,15.2197 4.0917,15.1557 4.2597,15.0357 L5.1987,14.3667 C5.5367,14.5437 5.8907,14.6877 6.2547,14.8017 L6.4417,15.9247 C6.5227,16.4017 6.9337,16.7497 7.4177,16.7497 L8.8287,16.7497 C9.3137,16.7497 9.7247,16.4017 9.8047,15.9247 L9.9957,14.8017 C10.3727,14.6837 10.7377,14.5337 11.0837,14.3497 L12.0107,15.0117 C12.1777,15.1327 12.3777,15.1957 12.5847,15.1957 C12.8497,15.1957 13.0967,15.0927 13.2847,14.9047 L14.2797,13.9087 C14.6217,13.5677 14.6667,13.0297 14.3867,12.6357 L13.7247,11.7067 C13.9097,11.3547 14.0627,10.9907 14.1757,10.6167 L15.2987,10.4297 C15.7777,10.3497 16.1247,9.9377 16.1247,9.4537 L16.1247,8.0467 C16.1317,7.5617 15.7847,7.1507 15.3057,7.0707 Z" id="Stroke-53" stroke="#636363" stroke-width="0.25"></path>
            <path d="M8.1261,11.2984 C6.7201,11.2984 5.5761,10.1554 5.5761,8.7484 C5.5761,7.3414 6.7201,6.1974 8.1261,6.1974 C9.5331,6.1974 10.6771,7.3414 10.6771,8.7484 C10.6771,10.1554 9.5331,11.2984 8.1261,11.2984 M8.1261,5.2954 C6.2221,5.2954 4.6741,6.8434 4.6741,8.7484 C4.6741,10.6524 6.2221,12.2004 8.1261,12.2004 C10.0311,12.2004 11.5791,10.6524 11.5791,8.7484 C11.5791,6.8434 10.0311,5.2954 8.1261,5.2954" id="Fill-55" fill="#636363"></path>
            <path d="M8.1261,11.2984 C6.7201,11.2984 5.5761,10.1554 5.5761,8.7484 C5.5761,7.3414 6.7201,6.1974 8.1261,6.1974 C9.5331,6.1974 10.6771,7.3414 10.6771,8.7484 C10.6771,10.1554 9.5331,11.2984 8.1261,11.2984 Z M8.1261,5.2954 C6.2221,5.2954 4.6741,6.8434 4.6741,8.7484 C4.6741,10.6524 6.2221,12.2004 8.1261,12.2004 C10.0311,12.2004 11.5791,10.6524 11.5791,8.7484 C11.5791,6.8434 10.0311,5.2954 8.1261,5.2954 Z" id="Stroke-57" stroke="#636363" stroke-width="0.25"></path>
        </g>
    </g>
</svg>