<svg xmlns="http://www.w3.org/2000/svg" width="22" height="19" viewBox="0 0 22 19">
    <g fill="#636363" fill-rule="evenodd">
        <path d="M20.336 15.48H6.826V8.09h6.983a.7.7 0 0 0 0-1.4H6.825V4.696h13.511v10.784zm-18.724 0V4.697h3.813V6.69H3.332a.7.7 0 1 0 0 1.4h2.093v7.391H1.612zM21.036 3.296H6.826v-.825l1.276-1.276A.7.7 0 0 0 7.607 0H4.644a.7.7 0 0 0-.495 1.196L5.425 2.47v.825H.912a.7.7 0 0 0-.7.702V16.18a.7.7 0 0 0 .7.7h4.513v1.069a.7.7 0 0 0 1.4 0V16.88h14.211a.7.7 0 0 0 .7-.7V3.998a.7.7 0 0 0-.7-.702z"/>
        <path d="M7.824 12.79a.7.7 0 0 0 .7.7h9.185a.7.7 0 1 0 0-1.4H8.525a.7.7 0 0 0-.7.7M11.525 10.79h2.284a.7.7 0 1 0 0-1.4h-2.284a.7.7 0 1 0 0 1.4"/>
    </g>
</svg>
