<svg xmlns="http://www.w3.org/2000/svg" width="25" height="7" viewBox="0 0 25 7">
    <g fill="#636363" fill-rule="evenodd">
        <path d="M23.534 4.873a.123.123 0 0 1-.123.123H1.523a.123.123 0 0 1-.123-.123V1.965c0-.069.055-.123.123-.123h21.888c.068 0 .123.054.123.123v2.908zM23.411.441H1.523C.683.441 0 1.125 0 1.965v2.908c0 .84.683 1.523 1.523 1.523h21.888c.84 0 1.523-.683 1.523-1.523V1.965c0-.84-.683-1.524-1.523-1.524z"/>
        <path d="M16.101 2.441h-13.4a.7.7 0 1 0 0 1.4h13.4a.7.7 0 1 0 0-1.4"/>
    </g>
</svg>
