<svg xmlns="http://www.w3.org/2000/svg" width="15" height="19" viewBox="0 0 15 19">
    <g fill="#636363" fill-rule="evenodd">
        <path d="M12.342 2.198L8.429 6.915a.702.702 0 0 0-.161.447v3.594l-1.255.405v-4a.708.708 0 0 0-.161-.447L2.94 2.198h9.402zm-6.73 5.416v4.708c0 .224.108.435.289.565a.693.693 0 0 0 .627.1l2.655-.855a.7.7 0 0 0 .485-.666V7.615l4.703-5.67a.702.702 0 0 0-.54-1.147H1.45a.7.7 0 0 0-.54 1.147l4.704 5.669zM7.836 16.593a.218.218 0 0 1-.195.112.22.22 0 0 1-.196-.112.227.227 0 0 1 0-.227l.196-.33.193.33a.222.222 0 0 1 .002.227zm.408-2.295c-.252-.428-.955-.428-1.207 0l-.798 1.36h-.001c-.298.51-.3 1.12-.006 1.631.292.511.819.817 1.409.817.59 0 1.116-.306 1.409-.817a1.608 1.608 0 0 0-.008-1.632l-.798-1.359z"/>
    </g>
</svg>
