<svg xmlns="http://www.w3.org/2000/svg" width="25" height="19" viewBox="0 0 25 19">
    <g fill="#636363" fill-rule="evenodd">
        <path d="M23.186 17.366H2.224a.288.288 0 0 1-.289-.288V3.541h21.538v13.537a.288.288 0 0 1-.287.288M2.224 1.401h20.962c.159 0 .288.129.288.287v.452H1.936v-.452c0-.158.128-.287.288-.287M23.186 0H2.224A1.69 1.69 0 0 0 .535 1.688v15.39a1.69 1.69 0 0 0 1.689 1.688h20.962a1.69 1.69 0 0 0 1.688-1.689V1.688A1.69 1.69 0 0 0 23.186 0"/>
        <path d="M10.458 13.784v-1.692c0-.84.464-1.604 1.211-1.992a1.07 1.07 0 0 0 .295-1.684.978.978 0 0 1-.26-.665 1.002 1.002 0 0 1 1.19-.985c.394.072.73.41.796.808a.98.98 0 0 1-.247.845 1.07 1.07 0 0 0 .296 1.681 2.24 2.24 0 0 1 1.212 1.992l.038 1.653-4.531.039zm4.26-4.73a2.39 2.39 0 0 0 .353-1.713 2.423 2.423 0 0 0-1.933-1.954 2.405 2.405 0 0 0-2.834 2.365c0 .465.135.917.387 1.301a3.63 3.63 0 0 0-1.633 3.04v1.69c0 .752.611 1.363 1.362 1.363h4.569c.751 0 1.363-.612 1.363-1.363v-1.69a3.635 3.635 0 0 0-1.634-3.04z"/>
        <path d="M18.547 10c.243-.42.335-.916.25-1.412a2.132 2.132 0 0 0-1.694-1.717 2.147 2.147 0 0 0-1.071.077.701.701 0 0 0 .452 1.326.744.744 0 0 1 .37-.026.72.72 0 0 1 .563.574.703.703 0 0 1-.227.655.886.886 0 0 0-.284.8.905.905 0 0 0 .525.688 1.75 1.75 0 0 1 1.034 1.595v1.023h-.947a.7.7 0 1 0 0 1.4h1.096c.69 0 1.25-.56 1.25-1.25V12.56A3.152 3.152 0 0 0 18.548 10M8.557 8.248a.732.732 0 0 1 .369.026.7.7 0 1 0 .45-1.326 2.128 2.128 0 0 0-1.068-.077 2.13 2.13 0 0 0-1.696 1.717c-.084.497.008.993.25 1.412a3.152 3.152 0 0 0-1.318 2.56v1.172c0 .69.562 1.251 1.25 1.251h1.098a.7.7 0 1 0 0-1.4h-.947V12.56a1.75 1.75 0 0 1 1.033-1.595.903.903 0 0 0 .239-1.49.698.698 0 0 1-.224-.653.72.72 0 0 1 .564-.574"/>
    </g>
</svg>
