<svg xmlns="http://www.w3.org/2000/svg" xmlns:xlink="http://www.w3.org/1999/xlink" width="33" height="17" viewBox="0 0 33 17">
    <defs>
        <path id="a" d="M0 .245v15.52h12.493V.244H0z"/>
    </defs>
    <g fill="none" fill-rule="evenodd">
        <path fill="#636363" d="M31.173 14.03a.717.717 0 0 1-.716.717H19.46a.716.716 0 0 1-.715-.716v-2.302a.703.703 0 0 0-.315-.585l-1.962-1.29 1.962-1.29a.702.702 0 0 0 .315-.584V4.804c0-.394.32-.715.715-.715h10.996c.395 0 .716.32.716.715v9.227zm-.716-11.342H19.46a2.118 2.118 0 0 0-2.115 2.116v2.798l-1.741 1.145c-.374.246-.597.66-.597 1.107 0 .448.223.862.597 1.108l1.74 1.145v1.924c0 1.167.95 2.116 2.116 2.116h10.996a2.118 2.118 0 0 0 2.116-2.116V4.804a2.118 2.118 0 0 0-2.116-2.116z"/>
        <path fill="#636363" d="M28.85 7.122h-7.23a.7.7 0 1 0 0 1.4h7.23a.7.7 0 1 0 0-1.4M25.754 10.312H21.62a.7.7 0 1 0 0 1.4h4.134a.7.7 0 1 0 0-1.4"/>
        <g transform="translate(0 .52)">
            <mask id="b" fill="#fff">
                <use xlink:href="#a"/>
            </mask>
            <path fill="#636363" d="M11.093 14.364H1.4v-9.77h.56A1.918 1.918 0 0 0 3.85 6.205h4.795c.953 0 1.74-.7 1.887-1.613h.56v9.771zM3.967 3.926a.7.7 0 0 0 .7-.7c0-.872.709-1.58 1.58-1.58.87 0 1.58.708 1.58 1.58 0 .386.314.7.7.7l.636.005v.355a.519.519 0 0 1-.518.52H3.85a.52.52 0 0 1-.52-.52l.006-.36h.63zm8.526 11.138V3.892a.7.7 0 0 0-.7-.7h-1.444a1.406 1.406 0 0 0-1.192-.667h-.012A2.986 2.986 0 0 0 6.247.245a2.985 2.985 0 0 0-2.897 2.28h-.014c-.504 0-.942.27-1.191.667H.7a.7.7 0 0 0-.7.7v11.172a.7.7 0 0 0 .7.7h11.093a.7.7 0 0 0 .7-.7z" mask="url(#b)"/>
        </g>
    </g>
</svg>
