<svg xmlns="http://www.w3.org/2000/svg" width="19" height="18" viewBox="0 0 19 18">
    <g fill="#636363" fill-rule="evenodd">
        <path d="M1.673 11.485h5.243V5.242H1.673v6.243zM1.461 3.84A1.19 1.19 0 0 0 .273 5.03v6.665a1.19 1.19 0 0 0 1.188 1.189h5.666a1.19 1.19 0 0 0 1.19-1.19V5.032c0-.656-.534-1.19-1.19-1.19H1.461zM3.834 1.953h13.277a.7.7 0 1 0 0-1.4H3.834a.7.7 0 1 0 0 1.4M.973 2.226A.973.973 0 1 0 .972.28a.973.973 0 0 0 .001 1.946M11.492 16.402h5.244V5.242h-5.244v11.16zM16.947 3.84h-5.666a1.19 1.19 0 0 0-1.19 1.19v11.582a1.19 1.19 0 0 0 1.19 1.189h5.666a1.19 1.19 0 0 0 1.189-1.19V5.032a1.19 1.19 0 0 0-1.189-1.19z"/>
    </g>
</svg>
