<svg xmlns="http://www.w3.org/2000/svg" width="32" height="17" viewBox="0 0 32 17">
    <g fill="#636363" fill-rule="evenodd">
        <path d="M30.469 11.68a.729.729 0 0 1-.728.727h-7.785c-.386 0-.756.166-1.014.454l-1.753 1.957V13.77c0-.75-.611-1.362-1.362-1.362h-2.94a.73.73 0 0 1-.728-.728V2.492a.73.73 0 0 1 .729-.727H29.74c.402 0 .728.326.728.727v9.187zM29.74.364H14.888a2.13 2.13 0 0 0-2.13 2.127v9.187c0 1.173.956 2.128 2.13 2.128l2.9-.038v1.734c0 .476.287.893.732 1.063a1.132 1.132 0 0 0 1.254-.304l2.182-2.455h7.785a2.13 2.13 0 0 0 2.128-2.128V2.492A2.13 2.13 0 0 0 29.74.365z"/>
        <path d="M27.368 4.458H17.211a.7.7 0 1 0 0 1.4h10.157a.7.7 0 1 0 0-1.4M22.778 7.803h-5.567a.7.7 0 1 0 0 1.4h5.567a.7.7 0 1 0 0-1.4M10.129 4.474H1.078a.7.7 0 1 0 0 1.4h9.05a.7.7 0 1 0 0-1.4M10.129 7.803H4.52a.7.7 0 1 0 0 1.4h5.608a.7.7 0 1 0 0-1.4"/>
    </g>
</svg>
