<svg xmlns="http://www.w3.org/2000/svg" xmlns:xlink="http://www.w3.org/1999/xlink" width="18" height="16" viewBox="0 0 18 16">
    <defs>
        <path id="a" d="M0 .559h17.356v15.204H0z"/>
    </defs>
    <g fill="none" fill-rule="evenodd">
        <g transform="translate(0 -.559)">
            <mask id="b" fill="#fff">
                <use xlink:href="#a"/>
            </mask>
            <path fill="#636363" d="M2.747 15.572a.699.699 0 1 0 .957-1.021A7.217 7.217 0 0 1 1.4 9.237c0-.98.198-1.914.55-2.769l1.76 1.263a.695.695 0 0 0 .975-.16.699.699 0 0 0-.16-.977l-1.91-1.373a7.282 7.282 0 0 1 5.362-3.227v2.144a.701.701 0 0 0 1.401 0V1.994a7.279 7.279 0 0 1 5.283 3.108l-2.077 1.492a.699.699 0 1 0 .816 1.137l1.948-1.398c.39.89.608 1.872.608 2.904a7.306 7.306 0 0 1-2.307 5.315.7.7 0 0 0 .957 1.022 8.713 8.713 0 0 0 2.75-6.337c0-4.785-3.893-8.679-8.678-8.679-3.245 0-6.076 1.793-7.564 4.44l-.006.004c-.004.005-.004.01-.007.016a8.618 8.618 0 0 0-1.1 4.22 8.713 8.713 0 0 0 2.746 6.334" mask="url(#b)"/>
        </g>
        <path fill="#636363" d="M8.3 13.386a.705.705 0 0 0 .379-.249.7.7 0 0 0 .378.25c.429.11.775.395.97.765H7.33c.196-.37.542-.656.97-.766zm2.6 2.166a.7.7 0 0 0 .7-.7A2.913 2.913 0 0 0 9.884 12.2l-.51-4.995a.7.7 0 0 0-1.391 0L7.474 12.2a2.913 2.913 0 0 0-1.718 2.653.7.7 0 0 0 .7.7H10.9z"/>
    </g>
</svg>
