<svg xmlns="http://www.w3.org/2000/svg" width="18" height="15" viewBox="0 0 18 15">
    <path fill="#636363" fill-rule="evenodd" d="M15.65 12.896H1.421a.022.022 0 0 1-.02-.02V4.014h6.947l7.324.02-.022 8.861zM2.087 1.402h3.06c.597 0 1.081.484 1.081 1.081v.108l.002.025H1.4v-.529c0-.377.308-.685.687-.685zM15.65 2.612L7.63 2.59v-.107A2.485 2.485 0 0 0 5.146 0h-3.06A2.089 2.089 0 0 0 0 2.086v10.79c0 .784.637 1.42 1.421 1.42h14.23c.783 0 1.422-.636 1.422-1.42v-8.84c0-.785-.639-1.423-1.423-1.423z"/>
</svg>
