<svg xmlns="http://www.w3.org/2000/svg" width="18" height="23" viewBox="0 0 18 23">
    <g fill="none" fill-rule="evenodd" stroke="#636363" stroke-linecap="round" stroke-linejoin="round" stroke-width="1.4">
        <path d="M8.454 11.822a3.1 3.1 0 0 0 .778-2.65c-.214-1.27-1.25-2.32-2.518-2.545a3.143 3.143 0 0 0-3.715 3.089c0 .813.313 1.547.821 2.1a.684.684 0 0 1-.188 1.09 5.433 5.433 0 0 0-2.933 4.822v3.122c0 .675.549 1.222 1.224 1.222h8.434c.675 0 1.222-.547 1.222-1.222v-3.122a5.43 5.43 0 0 0-2.934-4.823.681.681 0 0 1-.191-1.083zM13.222 21.555h2.435c.674 0 1.222-.547 1.222-1.222v-2.605a5.431 5.431 0 0 0-3.213-4.958c-.29-.13-.371-.519-.133-.73a3.108 3.108 0 0 0 1-2.869c-.215-1.268-1.245-2.314-2.509-2.542a3.175 3.175 0 0 0-1.598.114M5.776 3.891a3.19 3.19 0 1 1 6.382 0"/>
        <path d="M7.157 3.052L5.776 4.514 4.43 3.052"/>
    </g>
</svg>
