<?xml version="1.0" encoding="utf-8"?>
<!-- Generator: Adobe Illustrator 19.2.1, SVG Export Plug-In . SVG Version: 6.00 Build 0)  -->
<svg version="1.1" id="Layer_1" xmlns="http://www.w3.org/2000/svg" xmlns:xlink="http://www.w3.org/1999/xlink" x="0px" y="0px"
	 width="149px" height="138px" viewBox="0 0 149 138" enable-background="new 0 0 149 138" xml:space="preserve">
<g>
	<circle fill="#FFFFFF" cx="32.703" cy="56.083" r="5.108"/>
	<circle fill="#FFFFFF" cx="83.154" cy="55.942" r="5.5"/>
	<path fill="#FFFFFF" d="M128.824,0.208H20.175C9.217,0.208,0.333,9.092,0.333,20.05v64.482c0,10.959,8.884,19.844,19.842,19.844
		H58.55l13.052,30.749c0,0,0.898,2.667,3.074,2.667c0,0,0,0,0,0c2.175,0,3.074-2.667,3.074-2.667l13.052-30.749h38.022
		c10.959,0,19.843-8.885,19.843-19.844V20.05C148.667,9.092,139.783,0.208,128.824,0.208z M46.936,57.208
		c-0.063,11.786-12.25,12.125-12.25,12.125c-4.712,0-7.375-3.125-7.375-3.125v2.125h-8.875V31.729c-0.038-0.006-0.04-0.013,0-0.021
		v0.021c0.55,0.088,8.875-0.021,8.875-0.021v14c2.088-3.559,8.125-3.5,8.125-3.5C48.578,43.433,46.936,57.208,46.936,57.208z
		 M62.561,43.333v25.063h-8.688V43.583c0-3.375-4.187-4.312-4.187-4.312v-8.75C63.561,31.083,62.561,43.333,62.561,43.333z
		 M83.154,69.349c-8.043,0-14.562-6.002-14.562-13.406s6.52-13.406,14.562-13.406c8.043,0,14.562,6.002,14.562,13.406
		S91.197,69.349,83.154,69.349z M130.748,69.349c0,0,0.125,12.734-12.812,12.734h-3.938v-8.25h2.375c0,0,5.438,0.5,5.375-7.875
		c0,0-1.062,3.391-8.687,3.391c0,0-10.813-0.779-10.813-11.328v-4c0,0,0.25-10.938,12.125-11.813c0,0,4.688-0.5,7.563,3.375v-2.687
		h8.812V69.349z"/>
	<circle fill="#FFFFFF" cx="116.936" cy="55.942" r="5.375"/>
</g>
<g>
</g>
<g>
</g>
<g>
</g>
<g>
</g>
<g>
</g>
<g>
</g>
<g>
</g>
<g>
</g>
<g>
</g>
<g>
</g>
<g>
</g>
<g>
</g>
<g>
</g>
<g>
</g>
<g>
</g>
</svg>
