<?xml version="1.0" encoding="utf-8"?>
<!-- Generator: Adobe Illustrator 19.2.0, SVG Export Plug-In . SVG Version: 6.00 Build 0)  -->
<svg version="1.1" id="Layer_1" xmlns="http://www.w3.org/2000/svg" xmlns:xlink="http://www.w3.org/1999/xlink" x="0px" y="0px"
	 viewBox="0 0 171.619 31.722" enable-background="new 0 0 171.619 31.722" xml:space="preserve">
<g display="none">
	<path display="inline" fill="#00BFF0" d="M56.868,8.752h-5.003v17.17c0,1.404-1.152,2.556-2.592,2.556
		c-1.404,0-2.556-1.152-2.556-2.556V8.752h-5.003c-1.224,0-2.231-1.008-2.231-2.304c0-1.188,1.008-2.195,2.231-2.195h15.154
		c1.188,0,2.196,1.008,2.196,2.268C59.064,7.744,58.056,8.752,56.868,8.752z"/>
	<path display="inline" fill="#00BFF0" d="M74.508,28.262H64.105c-1.584,0-2.88-1.296-2.88-2.88V6.557
		c0-1.368,1.152-2.52,2.592-2.52c1.368,0,2.52,1.152,2.52,2.52v17.206h8.171c1.188,0,2.196,1.008,2.196,2.196
		C76.704,27.254,75.695,28.262,74.508,28.262z"/>
	<path display="inline" fill="#00BFF0" d="M96.288,28.478c-0.792,0-1.584-0.396-2.052-1.08L88.8,19.479l-5.471,7.955
		c-0.468,0.684-1.224,1.044-2.016,1.044c-1.296,0-2.484-0.972-2.484-2.448c0-0.504,0.144-0.972,0.432-1.404l6.119-8.675
		l-5.688-8.135c-0.288-0.396-0.396-0.828-0.396-1.296c0-1.224,0.972-2.448,2.484-2.448c0.828,0,1.62,0.396,2.124,1.116L88.8,12.46
		l4.823-7.235c0.468-0.72,1.26-1.152,2.124-1.152c1.404,0,2.556,1.116,2.556,2.412c0,0.468-0.144,0.972-0.432,1.368l-5.651,8.063
		l6.12,8.675c0.288,0.432,0.432,0.9,0.432,1.404C98.771,27.11,97.835,28.478,96.288,28.478z"/>
	<path display="inline" fill="#00BFF0" d="M115.849,20.312h-5.55v6.9c0,0.69-0.54,1.23-1.26,1.23c-0.69,0-1.23-0.54-1.23-1.23
		v-17.16c0-0.99,0.81-1.8,1.8-1.8h6.24c4.02,0,6.27,2.76,6.27,6.03S119.809,20.312,115.849,20.312z M115.549,10.473h-5.25v7.62h5.25
		c2.37,0,3.99-1.56,3.99-3.81S117.919,10.473,115.549,10.473z"/>
	<path display="inline" fill="#00BFF0" d="M137.569,28.442c-0.51,0-0.99-0.3-1.2-0.81l-1.5-3.81h-9.96l-1.5,3.81
		c-0.21,0.51-0.69,0.81-1.2,0.81c-0.78,0-1.35-0.63-1.35-1.32c0-0.15,0.03-0.33,0.09-0.48l6.899-17.219
		c0.33-0.81,1.11-1.35,2.04-1.35c0.87,0,1.65,0.54,1.98,1.35l6.959,17.219c0.06,0.15,0.09,0.33,0.09,0.48
		C138.919,27.722,138.379,28.442,137.569,28.442z M129.889,10.833l-4.26,10.77h8.49L129.889,10.833z"/>
	<path display="inline" fill="#00BFF0" d="M147.409,28.622c-2.97,0-5.31-0.99-7.02-2.49c-0.27-0.24-0.39-0.57-0.39-0.9
		c0-0.6,0.45-1.26,1.17-1.26c0.24,0,0.51,0.06,0.72,0.24c1.38,1.23,3.3,2.19,5.61,2.19c3.57,0,4.71-1.92,4.71-3.45
		c0-5.16-11.85-2.31-11.85-9.45c0-3.3,2.94-5.55,6.87-5.55c2.58,0,4.8,0.78,6.42,2.13c0.27,0.24,0.42,0.57,0.42,0.9
		c0,0.6-0.51,1.2-1.17,1.2c-0.24,0-0.51-0.09-0.72-0.27c-1.47-1.2-3.3-1.74-5.13-1.74c-2.4,0-4.11,1.29-4.11,3.18
		c0,4.5,11.85,1.92,11.85,9.39C154.789,25.652,152.809,28.622,147.409,28.622z"/>
	<path display="inline" fill="#00BFF0" d="M164.239,28.622c-2.97,0-5.31-0.99-7.02-2.49c-0.27-0.24-0.39-0.57-0.39-0.9
		c0-0.6,0.45-1.26,1.17-1.26c0.24,0,0.51,0.06,0.72,0.24c1.38,1.23,3.3,2.19,5.61,2.19c3.57,0,4.71-1.92,4.71-3.45
		c0-5.16-11.85-2.31-11.85-9.45c0-3.3,2.94-5.55,6.87-5.55c2.58,0,4.8,0.78,6.42,2.13c0.27,0.24,0.42,0.57,0.42,0.9
		c0,0.6-0.51,1.2-1.17,1.2c-0.24,0-0.51-0.09-0.72-0.27c-1.47-1.2-3.3-1.74-5.13-1.74c-2.4,0-4.11,1.29-4.11,3.18
		c0,4.5,11.85,1.92,11.85,9.39C171.619,25.652,169.639,28.622,164.239,28.622z"/>
</g>
<g>
	<g>
		<path fill="#00BFF0" d="M15.994,0C7.161,0,0,7.101,0,15.861c0,3.542,1.185,6.802,3.164,9.442l0.118-0.112l6.228-6.172l2.577-2.557
			l0.544-0.54l-3.986-3.955C7.666,10.994,7.667,9.415,8.65,8.44c0.982-0.975,2.574-0.976,3.554-0.003L23.726,19.87
			c0.981,0.973,0.979,2.552-0.003,3.527c-0.982,0.975-2.573,0.976-3.554,0.003l-3.986-3.955l-0.545,0.54l-2.577,2.557l-6.058,6.435
			c2.562,1.731,5.656,2.745,8.99,2.745c8.833,0,15.994-7.101,15.994-15.861C31.987,7.101,24.827,0,15.994,0z M25.328,16.921
			c-0.661,0.656-1.733,0.657-2.394,0.002l-7.76-7.7c-0.66-0.655-0.659-1.719,0.002-2.375c0.661-0.656,1.733-0.657,2.394-0.002
			l2.406,2.388c0.829-0.499,1.92-0.4,2.635,0.31c0.715,0.71,0.815,1.792,0.312,2.615l2.406,2.388
			C25.99,15.201,25.989,16.264,25.328,16.921z"/>
	</g>
</g>
<g>
	<path fill="#00BFF0" stroke="#00BFF0" stroke-width="0.75" stroke-miterlimit="10" d="M55.745,7.81c0,0.672-0.528,1.2-1.2,1.2
		h-5.257v15.265c0,0.672-0.552,1.2-1.2,1.2c-0.672,0-1.2-0.528-1.2-1.2V9.01h-5.281c-0.672,0-1.2-0.528-1.2-1.2s0.528-1.2,1.2-1.2
		h12.938C55.217,6.609,55.745,7.138,55.745,7.81z"/>
	<path fill="#00BFF0" stroke="#00BFF0" stroke-width="0.75" stroke-miterlimit="10" d="M70.049,25.475H59.584
		c-0.648,0-1.2-0.528-1.2-1.2V7.81c0-0.672,0.552-1.2,1.2-1.2c0.672,0,1.2,0.528,1.2,1.2v15.265h9.265c0.672,0,1.2,0.528,1.2,1.2
		C71.249,24.947,70.721,25.475,70.049,25.475z"/>
	<path fill="#00BFF0" stroke="#00BFF0" stroke-width="0.75" stroke-miterlimit="10" d="M88.001,25.259
		c-0.216,0.144-0.456,0.216-0.72,0.216c-0.36,0-0.72-0.168-0.96-0.48l-5.112-7.104l-5.136,7.104c-0.24,0.312-0.6,0.48-0.984,0.48
		c-0.24,0-0.48-0.072-0.696-0.216c-0.552-0.384-0.672-1.128-0.264-1.68l5.592-7.753L74.44,8.53c-0.408-0.552-0.288-1.296,0.264-1.68
		c0.528-0.384,1.272-0.264,1.68,0.264l4.824,6.673l4.8-6.673c0.384-0.528,1.128-0.648,1.68-0.264
		c0.528,0.384,0.648,1.128,0.264,1.68l-5.28,7.296l5.592,7.753C88.649,24.131,88.529,24.875,88.001,25.259z"/>
	<path fill="#00BFF0" d="M101.919,25.475c-0.648,0-1.2-0.528-1.2-1.2V7.81c0-0.672,0.552-1.2,1.2-1.2h7.129
		c0.096,0,0.672,0,1.416,0.192c1.056,0.264,1.992,0.792,2.712,1.488c0.528,0.528,0.96,1.176,1.248,1.92
		c0.312,0.816,0.48,1.752,0.48,2.784c0,2.28-0.96,4.008-2.76,5.041c-1.296,0.744-3.024,1.104-5.161,1.104
		c-0.648,0-1.2-0.528-1.2-1.2s0.552-1.2,1.2-1.2c1.704,0,3.048-0.264,3.96-0.792c1.056-0.6,1.56-1.536,1.56-2.952
		c0-0.96-0.192-1.752-0.528-2.353c-0.264-0.48-0.648-0.84-1.104-1.104c-0.864-0.504-1.752-0.528-1.824-0.528h-5.929v15.265
		C103.12,24.947,102.592,25.475,101.919,25.475z"/>
	<path fill="#00BFF0" d="M116.704,25.475c-0.24,0-0.504-0.072-0.72-0.24c-0.456-0.336-0.624-0.96-0.36-1.488l7.993-16.465
		c0.216-0.408,0.624-0.672,1.08-0.672s0.888,0.264,1.08,0.672l8.041,16.441c0.288,0.576,0.048,1.296-0.552,1.584
		c-0.6,0.312-1.32,0.048-1.608-0.528l-1.872-3.864c-1.248-0.36-2.568-0.408-3.984-0.144c-1.32,0.24-2.688,0.72-4.104,1.464
		c-2.448,1.296-4.152,2.88-4.176,2.904C117.304,25.355,116.992,25.475,116.704,25.475z M124.697,10.546l-4.825,9.961
		c0.216-0.12,0.432-0.24,0.672-0.36c1.608-0.864,3.24-1.44,4.8-1.728c1.08-0.192,2.112-0.264,3.12-0.168L124.697,10.546z"/>
	<path fill="#00BFF0" d="M143.44,25.763c-5.208,0-6.672-2.448-6.841-2.736c-0.312-0.576-0.096-1.32,0.48-1.632
		c0.576-0.312,1.296-0.096,1.608,0.456c0.048,0.048,0.288,0.384,0.912,0.72c1.2,0.648,2.76,0.792,3.84,0.792
		c1.584,0,2.784-0.336,3.456-0.96c0.528-0.48,0.648-1.08,0.648-1.488c0-0.888-0.264-1.56-0.84-2.112
		c-0.744-0.744-2.04-1.296-3.864-1.656c-1.32-0.288-2.472-0.744-3.384-1.368c-0.768-0.528-1.368-1.176-1.8-1.944
		c-0.696-1.2-0.696-2.28-0.696-2.568c0-1.272,0.6-2.544,1.632-3.456c0.504-0.456,1.128-0.816,1.824-1.08
		c0.72-0.264,1.512-0.384,2.328-0.384c4.681,0,6.049,2.208,6.193,2.473c0.312,0.576,0.12,1.32-0.456,1.632s-1.296,0.12-1.608-0.432
		c-0.048-0.048-0.264-0.312-0.792-0.624c-0.576-0.288-1.608-0.648-3.336-0.648c-1.32,0-2.112,0.456-2.568,0.864
		c-0.504,0.456-0.816,1.08-0.816,1.704v0.048c0,0.096,0,0.696,0.432,1.392c0.264,0.432,0.624,0.792,1.104,1.104
		c0.624,0.408,1.44,0.72,2.424,0.936c2.304,0.456,3.96,1.2,5.064,2.28c1.032,1.008,1.56,2.304,1.56,3.84
		c0,1.248-0.504,2.4-1.416,3.265C147.401,25.235,145.673,25.763,143.44,25.763z"/>
	<path fill="#00BFF0" d="M159.568,25.763c-5.208,0-6.672-2.448-6.841-2.736c-0.312-0.576-0.096-1.32,0.48-1.632
		c0.576-0.312,1.296-0.096,1.608,0.456c0.048,0.048,0.288,0.384,0.912,0.72c1.2,0.648,2.76,0.792,3.84,0.792
		c1.584,0,2.784-0.336,3.456-0.96c0.528-0.48,0.648-1.08,0.648-1.488c0-0.888-0.264-1.56-0.84-2.112
		c-0.744-0.744-2.04-1.296-3.864-1.656c-1.32-0.288-2.472-0.744-3.384-1.368c-0.768-0.528-1.368-1.176-1.8-1.944
		c-0.696-1.2-0.696-2.28-0.696-2.568c0-1.272,0.6-2.544,1.632-3.456c0.504-0.456,1.128-0.816,1.824-1.08
		c0.72-0.264,1.512-0.384,2.328-0.384c4.681,0,6.049,2.208,6.193,2.473c0.312,0.576,0.12,1.32-0.456,1.632s-1.296,0.12-1.608-0.432
		c-0.048-0.048-0.264-0.312-0.792-0.624c-0.576-0.288-1.608-0.648-3.336-0.648c-1.32,0-2.112,0.456-2.568,0.864
		c-0.504,0.456-0.816,1.08-0.816,1.704v0.048c0,0.096,0,0.696,0.432,1.392c0.264,0.432,0.624,0.792,1.104,1.104
		c0.624,0.408,1.44,0.72,2.424,0.936c2.304,0.456,3.96,1.2,5.064,2.28c1.032,1.008,1.56,2.304,1.56,3.84
		c0,1.248-0.504,2.4-1.416,3.265C163.528,25.235,161.8,25.763,159.568,25.763z"/>
</g>
<g>
</g>
<g>
</g>
<g>
</g>
<g>
</g>
<g>
</g>
<g>
</g>
<g>
</g>
<g>
</g>
<g>
</g>
<g>
</g>
<g>
</g>
<g>
</g>
<g>
</g>
<g>
</g>
<g>
</g>
</svg>
